<svg width="25" height="24" viewBox="0 0 25 24" fill="none" xmlns="http://www.w3.org/2000/svg">
  <g transform="scale(0.85) translate(1.875, 1.8)">
    <path d="M14.8434 4.6278H13.5349C9.88338 4.6278 6.75944 6.90046 5.48415 10.1166H24.3388V11.0816C24.3388 12.9426 24.2005 14.8396 23.3865 16.5132C21.2302 20.9468 16.7028 24 11.4661 24H0.769238V19.3722H11.4661C15.1176 19.3722 18.2416 17.0995 19.5169 13.8834H0.661621V12.9184C0.661621 11.0574 0.799887 9.16038 1.61387 7.48685C3.77034 3.05323 8.29823 0 13.5349 0H15.978L14.8434 4.6278Z" fill="#B8B8B8"/>
    <path d="M23.8968 0L23.5576 1.89925L21.6041 3.18803C22.6623 3.51362 23.232 4.19192 23.232 5.27721C23.232 7.0408 21.6855 8.19392 19.23 8.19392C18.0498 8.19392 17.168 7.97687 16.7339 7.70554L17.1409 5.61636C17.5614 5.95552 18.3754 6.15901 19.2979 6.15901C20.1932 6.15901 20.763 5.92838 20.763 5.29078C20.763 4.7617 20.3696 4.53108 19.2843 4.53108H18.5653L18.7552 3.40509L20.8308 2.03491H17.6292L18.1719 0H23.8968Z" fill="#B8B8B8"/>
  </g>
</svg>
